# xmcd
#
# Track frame offsets:
#	182
#	27720
#	49612
#	65217
#	82162
#	107497
#	129045
#	150635
#	171570
# Disc length: 2751 seconds
# Revision: 1
# Processed by: cddbd v1.5.2PL0 Copyright (c) Steve Scherf et al.
#
# Submitted via: libkcddb 0.31
#
DISCID=790abd09
DTITLE=Various Artist - Godchildren of Soul: Anyone Can Join!
DYEAR=1994
DGENRE=R&B
TTITLE0=The Laddins - Soulfingertips
TTITLE1=Rufus Thomas - Do The Funky Somethin'
TTITLE2=General Johnson and Joey Ramone - Rockaway Beach
TTITLE3=2 Little Kids - Flying On The Ground
TTITLE4=Sam Moore and Mor Dior Sek - We Shall Sing (Simangene)
TTITLE5=Sugarhill Gang - Get Together
TTITLE6=Swamp Dogg - Life
TTITLE7=Lisa Stevens - Little Angel
TTITLE8=The Klezmatics - Crown Heights Affair
EXTD=
EXTT0=
EXTT1=
EXTT2=
EXTT3=
EXTT4=
EXTT5=
EXTT6=
EXTT7=
EXTT8=
PLAYORDER=
